<mxfile host="app.diagrams.net" modified="2022-03-02T20:45:25.273Z" agent="5.0 (Macintosh)" etag="_EdfcrBWY5ZHDXex1N3o" version="16.6.5" type="github">
  <diagram id="C5RBs43oDa-KdzZeNtuy" name="Page-1">
    <mxGraphModel dx="1121" dy="711" grid="1" gridSize="10" guides="1" tooltips="1" connect="1" arrows="1" fold="1" page="1" pageScale="1" pageWidth="827" pageHeight="1169" math="0" shadow="0">
      <root>
        <mxCell id="WIyWlLk6GJQsqaUBKTNV-0" />
        <mxCell id="WIyWlLk6GJQsqaUBKTNV-1" parent="WIyWlLk6GJQsqaUBKTNV-0" />
        <mxCell id="8fPAHDgYZI8WkZchjllX-3" style="edgeStyle=orthogonalEdgeStyle;rounded=0;orthogonalLoop=1;jettySize=auto;html=1;" edge="1" parent="WIyWlLk6GJQsqaUBKTNV-1" source="8fPAHDgYZI8WkZchjllX-0" target="8fPAHDgYZI8WkZchjllX-2">
          <mxGeometry relative="1" as="geometry" />
        </mxCell>
        <mxCell id="8fPAHDgYZI8WkZchjllX-0" value="Inicio" style="ellipse;whiteSpace=wrap;html=1;" vertex="1" parent="WIyWlLk6GJQsqaUBKTNV-1">
          <mxGeometry x="125" y="190" width="90" height="60" as="geometry" />
        </mxCell>
        <mxCell id="8fPAHDgYZI8WkZchjllX-1" value="Fin" style="ellipse;whiteSpace=wrap;html=1;" vertex="1" parent="WIyWlLk6GJQsqaUBKTNV-1">
          <mxGeometry x="530" y="402.5" width="97.5" height="65" as="geometry" />
        </mxCell>
        <mxCell id="8fPAHDgYZI8WkZchjllX-5" style="edgeStyle=orthogonalEdgeStyle;rounded=0;orthogonalLoop=1;jettySize=auto;html=1;" edge="1" parent="WIyWlLk6GJQsqaUBKTNV-1" source="8fPAHDgYZI8WkZchjllX-2">
          <mxGeometry relative="1" as="geometry">
            <mxPoint x="170" y="390" as="targetPoint" />
          </mxGeometry>
        </mxCell>
        <mxCell id="8fPAHDgYZI8WkZchjllX-2" value="fact=1" style="rounded=0;whiteSpace=wrap;html=1;" vertex="1" parent="WIyWlLk6GJQsqaUBKTNV-1">
          <mxGeometry x="110" y="290" width="120" height="60" as="geometry" />
        </mxCell>
        <mxCell id="8fPAHDgYZI8WkZchjllX-12" style="edgeStyle=orthogonalEdgeStyle;rounded=0;orthogonalLoop=1;jettySize=auto;html=1;" edge="1" parent="WIyWlLk6GJQsqaUBKTNV-1" source="8fPAHDgYZI8WkZchjllX-6">
          <mxGeometry relative="1" as="geometry">
            <mxPoint x="170" y="520" as="targetPoint" />
          </mxGeometry>
        </mxCell>
        <mxCell id="8fPAHDgYZI8WkZchjllX-31" style="edgeStyle=orthogonalEdgeStyle;rounded=0;orthogonalLoop=1;jettySize=auto;html=1;fontFamily=Helvetica;fontSize=13;entryX=0;entryY=0.5;entryDx=0;entryDy=0;" edge="1" parent="WIyWlLk6GJQsqaUBKTNV-1" source="8fPAHDgYZI8WkZchjllX-6" target="8fPAHDgYZI8WkZchjllX-17">
          <mxGeometry relative="1" as="geometry">
            <Array as="points">
              <mxPoint x="310" y="435" />
            </Array>
          </mxGeometry>
        </mxCell>
        <mxCell id="8fPAHDgYZI8WkZchjllX-6" value="n != 0" style="rhombus;whiteSpace=wrap;html=1;" vertex="1" parent="WIyWlLk6GJQsqaUBKTNV-1">
          <mxGeometry x="125" y="390" width="90" height="90" as="geometry" />
        </mxCell>
        <mxCell id="8fPAHDgYZI8WkZchjllX-14" style="edgeStyle=orthogonalEdgeStyle;rounded=0;orthogonalLoop=1;jettySize=auto;html=1;startArrow=none;exitX=1;exitY=0.5;exitDx=0;exitDy=0;" edge="1" parent="WIyWlLk6GJQsqaUBKTNV-1" source="8fPAHDgYZI8WkZchjllX-8" target="8fPAHDgYZI8WkZchjllX-17">
          <mxGeometry relative="1" as="geometry">
            <mxPoint x="220" y="655" as="sourcePoint" />
            <mxPoint x="380" y="655" as="targetPoint" />
            <Array as="points">
              <mxPoint x="325" y="655" />
            </Array>
          </mxGeometry>
        </mxCell>
        <mxCell id="8fPAHDgYZI8WkZchjllX-16" value="" style="edgeStyle=orthogonalEdgeStyle;rounded=0;orthogonalLoop=1;jettySize=auto;html=1;" edge="1" parent="WIyWlLk6GJQsqaUBKTNV-1" source="8fPAHDgYZI8WkZchjllX-8" target="8fPAHDgYZI8WkZchjllX-15">
          <mxGeometry relative="1" as="geometry" />
        </mxCell>
        <mxCell id="8fPAHDgYZI8WkZchjllX-8" value="i&amp;lt;=n" style="rhombus;whiteSpace=wrap;html=1;" vertex="1" parent="WIyWlLk6GJQsqaUBKTNV-1">
          <mxGeometry x="125" y="610" width="90" height="90" as="geometry" />
        </mxCell>
        <mxCell id="8fPAHDgYZI8WkZchjllX-46" style="edgeStyle=orthogonalEdgeStyle;rounded=0;orthogonalLoop=1;jettySize=auto;html=1;fontFamily=Helvetica;fontSize=13;" edge="1" parent="WIyWlLk6GJQsqaUBKTNV-1" source="8fPAHDgYZI8WkZchjllX-9" target="8fPAHDgYZI8WkZchjllX-1">
          <mxGeometry relative="1" as="geometry" />
        </mxCell>
        <mxCell id="8fPAHDgYZI8WkZchjllX-9" value="Return fact" style="rounded=1;whiteSpace=wrap;html=1;" vertex="1" parent="WIyWlLk6GJQsqaUBKTNV-1">
          <mxGeometry x="380" y="405" width="120" height="60" as="geometry" />
        </mxCell>
        <mxCell id="8fPAHDgYZI8WkZchjllX-36" style="edgeStyle=orthogonalEdgeStyle;rounded=0;orthogonalLoop=1;jettySize=auto;html=1;fontFamily=Helvetica;fontSize=13;" edge="1" parent="WIyWlLk6GJQsqaUBKTNV-1" source="8fPAHDgYZI8WkZchjllX-15" target="8fPAHDgYZI8WkZchjllX-34">
          <mxGeometry relative="1" as="geometry" />
        </mxCell>
        <mxCell id="8fPAHDgYZI8WkZchjllX-15" value="fact=fact * i" style="rounded=0;whiteSpace=wrap;html=1;" vertex="1" parent="WIyWlLk6GJQsqaUBKTNV-1">
          <mxGeometry x="110" y="740" width="120" height="60" as="geometry" />
        </mxCell>
        <mxCell id="8fPAHDgYZI8WkZchjllX-45" style="edgeStyle=orthogonalEdgeStyle;rounded=0;orthogonalLoop=1;jettySize=auto;html=1;fontFamily=Helvetica;fontSize=13;" edge="1" parent="WIyWlLk6GJQsqaUBKTNV-1" source="8fPAHDgYZI8WkZchjllX-17" target="8fPAHDgYZI8WkZchjllX-9">
          <mxGeometry relative="1" as="geometry" />
        </mxCell>
        <mxCell id="8fPAHDgYZI8WkZchjllX-17" value="" style="ellipse;whiteSpace=wrap;html=1;aspect=fixed;" vertex="1" parent="WIyWlLk6GJQsqaUBKTNV-1">
          <mxGeometry x="310" y="420" width="30" height="30" as="geometry" />
        </mxCell>
        <mxCell id="8fPAHDgYZI8WkZchjllX-21" value="&lt;h1 style=&quot;font-size: 13px&quot;&gt;&lt;span style=&quot;font-weight: normal&quot;&gt;verdad&lt;/span&gt;&lt;br&gt;&lt;/h1&gt;&lt;p&gt;&lt;br&gt;&lt;/p&gt;" style="text;html=1;strokeColor=none;fillColor=none;spacing=5;spacingTop=-20;whiteSpace=wrap;overflow=hidden;rounded=0;" vertex="1" parent="WIyWlLk6GJQsqaUBKTNV-1">
          <mxGeometry x="180" y="490" width="50" height="20" as="geometry" />
        </mxCell>
        <mxCell id="8fPAHDgYZI8WkZchjllX-22" value="falso" style="text;html=1;strokeColor=none;fillColor=none;spacing=5;spacingTop=-20;whiteSpace=wrap;overflow=hidden;rounded=0;" vertex="1" parent="WIyWlLk6GJQsqaUBKTNV-1">
          <mxGeometry x="219" y="428" width="50" height="20" as="geometry" />
        </mxCell>
        <mxCell id="8fPAHDgYZI8WkZchjllX-29" style="edgeStyle=orthogonalEdgeStyle;rounded=0;orthogonalLoop=1;jettySize=auto;html=1;fontFamily=Helvetica;fontSize=13;" edge="1" parent="WIyWlLk6GJQsqaUBKTNV-1" source="8fPAHDgYZI8WkZchjllX-28" target="8fPAHDgYZI8WkZchjllX-8">
          <mxGeometry relative="1" as="geometry" />
        </mxCell>
        <mxCell id="8fPAHDgYZI8WkZchjllX-28" value="i=1" style="rounded=0;whiteSpace=wrap;html=1;" vertex="1" parent="WIyWlLk6GJQsqaUBKTNV-1">
          <mxGeometry x="110" y="520" width="120" height="60" as="geometry" />
        </mxCell>
        <mxCell id="8fPAHDgYZI8WkZchjllX-37" style="edgeStyle=orthogonalEdgeStyle;rounded=0;orthogonalLoop=1;jettySize=auto;html=1;entryX=0;entryY=0.5;entryDx=0;entryDy=0;fontFamily=Helvetica;fontSize=13;exitX=0.5;exitY=1;exitDx=0;exitDy=0;" edge="1" parent="WIyWlLk6GJQsqaUBKTNV-1" source="8fPAHDgYZI8WkZchjllX-34" target="8fPAHDgYZI8WkZchjllX-8">
          <mxGeometry relative="1" as="geometry">
            <mxPoint x="170" y="900" as="sourcePoint" />
            <Array as="points">
              <mxPoint x="170" y="910" />
              <mxPoint x="80" y="910" />
              <mxPoint x="80" y="655" />
            </Array>
          </mxGeometry>
        </mxCell>
        <mxCell id="8fPAHDgYZI8WkZchjllX-34" value="i=i+1" style="rounded=0;whiteSpace=wrap;html=1;" vertex="1" parent="WIyWlLk6GJQsqaUBKTNV-1">
          <mxGeometry x="110" y="830" width="120" height="60" as="geometry" />
        </mxCell>
        <mxCell id="8fPAHDgYZI8WkZchjllX-38" value="&lt;h1 style=&quot;font-size: 13px&quot;&gt;&lt;span style=&quot;font-weight: normal&quot;&gt;verdad&lt;/span&gt;&lt;br&gt;&lt;/h1&gt;&lt;p&gt;&lt;br&gt;&lt;/p&gt;" style="text;html=1;strokeColor=none;fillColor=none;spacing=5;spacingTop=-20;whiteSpace=wrap;overflow=hidden;rounded=0;" vertex="1" parent="WIyWlLk6GJQsqaUBKTNV-1">
          <mxGeometry x="177" y="705" width="50" height="20" as="geometry" />
        </mxCell>
        <mxCell id="8fPAHDgYZI8WkZchjllX-39" value="falso" style="text;html=1;strokeColor=none;fillColor=none;spacing=5;spacingTop=-20;whiteSpace=wrap;overflow=hidden;rounded=0;" vertex="1" parent="WIyWlLk6GJQsqaUBKTNV-1">
          <mxGeometry x="215" y="648" width="50" height="20" as="geometry" />
        </mxCell>
      </root>
    </mxGraphModel>
  </diagram>
</mxfile>
